<mxfile host="app.diagrams.net" modified="2024-06-21T09:22:12.158Z" agent="Mozilla/5.0 (Macintosh; Intel Mac OS X 10_15_7) AppleWebKit/537.36 (KHTML, like Gecko) Chrome/126.0.0.0 Safari/537.36" etag="M69y4FaWRXlbdNGyfqsm" version="24.5.5" type="github">
  <diagram name="Seite-1" id="RwgIXvr0ZmrAkYk_ciAV">
    <mxGraphModel dx="1384" dy="1319" grid="1" gridSize="10" guides="1" tooltips="1" connect="1" arrows="1" fold="1" page="1" pageScale="1" pageWidth="827" pageHeight="1169" math="0" shadow="0">
      <root>
        <mxCell id="0" />
        <mxCell id="1" parent="0" />
        <mxCell id="-p0KhLr4cQShKRkjS3Pc-5" style="edgeStyle=orthogonalEdgeStyle;rounded=0;orthogonalLoop=1;jettySize=auto;html=1;" edge="1" parent="1" source="-p0KhLr4cQShKRkjS3Pc-1">
          <mxGeometry relative="1" as="geometry">
            <mxPoint x="325" y="264.38117647058806" as="targetPoint" />
            <Array as="points">
              <mxPoint x="300" y="264.44" />
              <mxPoint x="300" y="264.44" />
            </Array>
          </mxGeometry>
        </mxCell>
        <mxCell id="-p0KhLr4cQShKRkjS3Pc-6" value="press Upload Button" style="edgeLabel;html=1;align=center;verticalAlign=middle;resizable=0;points=[];" vertex="1" connectable="0" parent="-p0KhLr4cQShKRkjS3Pc-5">
          <mxGeometry x="-0.1895" relative="1" as="geometry">
            <mxPoint x="20" y="-10" as="offset" />
          </mxGeometry>
        </mxCell>
        <mxCell id="-p0KhLr4cQShKRkjS3Pc-13" style="edgeStyle=orthogonalEdgeStyle;rounded=0;orthogonalLoop=1;jettySize=auto;html=1;" edge="1" parent="1" source="-p0KhLr4cQShKRkjS3Pc-1" target="-p0KhLr4cQShKRkjS3Pc-4">
          <mxGeometry relative="1" as="geometry">
            <Array as="points">
              <mxPoint x="260" y="210" />
              <mxPoint x="260" y="210" />
            </Array>
          </mxGeometry>
        </mxCell>
        <mxCell id="-p0KhLr4cQShKRkjS3Pc-14" value="upload PDF in fileUploader" style="edgeLabel;html=1;align=center;verticalAlign=middle;resizable=0;points=[];" vertex="1" connectable="0" parent="-p0KhLr4cQShKRkjS3Pc-13">
          <mxGeometry x="-0.2493" relative="1" as="geometry">
            <mxPoint x="5" y="-10" as="offset" />
          </mxGeometry>
        </mxCell>
        <mxCell id="-p0KhLr4cQShKRkjS3Pc-1" value="User" style="shape=umlActor;verticalLabelPosition=bottom;verticalAlign=top;html=1;" vertex="1" parent="1">
          <mxGeometry x="40" y="180" width="30" height="60" as="geometry" />
        </mxCell>
        <mxCell id="-p0KhLr4cQShKRkjS3Pc-3" value=":MainView" style="shape=umlLifeline;perimeter=lifelinePerimeter;whiteSpace=wrap;html=1;container=1;dropTarget=0;collapsible=0;recursiveResize=0;outlineConnect=0;portConstraint=eastwest;newEdgeStyle={&quot;curved&quot;:0,&quot;rounded&quot;:0};" vertex="1" parent="1">
          <mxGeometry x="280" y="120" width="100" height="960" as="geometry" />
        </mxCell>
        <mxCell id="-p0KhLr4cQShKRkjS3Pc-4" value="" style="html=1;points=[[0,0,0,0,5],[0,1,0,0,-5],[1,0,0,0,5],[1,1,0,0,-5]];perimeter=orthogonalPerimeter;outlineConnect=0;targetShapes=umlLifeline;portConstraint=eastwest;newEdgeStyle={&quot;curved&quot;:0,&quot;rounded&quot;:0};" vertex="1" parent="-p0KhLr4cQShKRkjS3Pc-3">
          <mxGeometry x="45" y="50" width="10" height="910" as="geometry" />
        </mxCell>
        <mxCell id="-p0KhLr4cQShKRkjS3Pc-7" value=":MainView.controller" style="shape=umlLifeline;perimeter=lifelinePerimeter;whiteSpace=wrap;html=1;container=1;dropTarget=0;collapsible=0;recursiveResize=0;outlineConnect=0;portConstraint=eastwest;newEdgeStyle={&quot;curved&quot;:0,&quot;rounded&quot;:0};" vertex="1" parent="1">
          <mxGeometry x="470" y="120" width="100" height="970" as="geometry" />
        </mxCell>
        <mxCell id="-p0KhLr4cQShKRkjS3Pc-8" value="" style="html=1;points=[[0,0,0,0,5],[0,1,0,0,-5],[1,0,0,0,5],[1,1,0,0,-5]];perimeter=orthogonalPerimeter;outlineConnect=0;targetShapes=umlLifeline;portConstraint=eastwest;newEdgeStyle={&quot;curved&quot;:0,&quot;rounded&quot;:0};" vertex="1" parent="-p0KhLr4cQShKRkjS3Pc-7">
          <mxGeometry x="45" y="50" width="10" height="830" as="geometry" />
        </mxCell>
        <mxCell id="-p0KhLr4cQShKRkjS3Pc-9" style="edgeStyle=orthogonalEdgeStyle;rounded=0;orthogonalLoop=1;jettySize=auto;html=1;curved=0;" edge="1" parent="1">
          <mxGeometry relative="1" as="geometry">
            <mxPoint x="335" y="284.71" as="sourcePoint" />
            <mxPoint x="515.0000000000001" y="284.71" as="targetPoint" />
          </mxGeometry>
        </mxCell>
        <mxCell id="-p0KhLr4cQShKRkjS3Pc-10" value="onUploadPDF" style="edgeLabel;html=1;align=center;verticalAlign=middle;resizable=0;points=[];" vertex="1" connectable="0" parent="-p0KhLr4cQShKRkjS3Pc-9">
          <mxGeometry x="-0.3413" relative="1" as="geometry">
            <mxPoint x="26" y="-10" as="offset" />
          </mxGeometry>
        </mxCell>
        <mxCell id="-p0KhLr4cQShKRkjS3Pc-11" style="edgeStyle=orthogonalEdgeStyle;rounded=0;orthogonalLoop=1;jettySize=auto;html=1;curved=0;" edge="1" parent="1">
          <mxGeometry relative="1" as="geometry">
            <mxPoint x="515.0000000000001" y="310.06000000000023" as="sourcePoint" />
            <mxPoint x="335" y="310.00117647058806" as="targetPoint" />
            <Array as="points">
              <mxPoint x="380" y="309.62" />
              <mxPoint x="380" y="309.62" />
            </Array>
          </mxGeometry>
        </mxCell>
        <mxCell id="-p0KhLr4cQShKRkjS3Pc-12" value="get FileUploader file" style="edgeLabel;html=1;align=center;verticalAlign=middle;resizable=0;points=[];" vertex="1" connectable="0" parent="-p0KhLr4cQShKRkjS3Pc-11">
          <mxGeometry x="0.1967" relative="1" as="geometry">
            <mxPoint x="7" y="-10" as="offset" />
          </mxGeometry>
        </mxCell>
        <mxCell id="-p0KhLr4cQShKRkjS3Pc-17" value="pdf as file" style="html=1;verticalAlign=bottom;endArrow=open;dashed=1;endSize=8;curved=0;rounded=0;" edge="1" parent="1" target="-p0KhLr4cQShKRkjS3Pc-8">
          <mxGeometry relative="1" as="geometry">
            <mxPoint x="335" y="340" as="sourcePoint" />
            <mxPoint x="510" y="340" as="targetPoint" />
            <Array as="points">
              <mxPoint x="440" y="340" />
            </Array>
          </mxGeometry>
        </mxCell>
        <mxCell id="-p0KhLr4cQShKRkjS3Pc-18" value=":BaseController" style="shape=umlLifeline;perimeter=lifelinePerimeter;whiteSpace=wrap;html=1;container=1;dropTarget=0;collapsible=0;recursiveResize=0;outlineConnect=0;portConstraint=eastwest;newEdgeStyle={&quot;curved&quot;:0,&quot;rounded&quot;:0};" vertex="1" parent="1">
          <mxGeometry x="740" y="120" width="100" height="980" as="geometry" />
        </mxCell>
        <mxCell id="-p0KhLr4cQShKRkjS3Pc-19" value="" style="html=1;points=[[0,0,0,0,5],[0,1,0,0,-5],[1,0,0,0,5],[1,1,0,0,-5]];perimeter=orthogonalPerimeter;outlineConnect=0;targetShapes=umlLifeline;portConstraint=eastwest;newEdgeStyle={&quot;curved&quot;:0,&quot;rounded&quot;:0};" vertex="1" parent="-p0KhLr4cQShKRkjS3Pc-18">
          <mxGeometry x="45" y="50" width="10" height="220" as="geometry" />
        </mxCell>
        <mxCell id="-p0KhLr4cQShKRkjS3Pc-20" style="edgeStyle=orthogonalEdgeStyle;rounded=0;orthogonalLoop=1;jettySize=auto;html=1;curved=0;" edge="1" parent="1" target="-p0KhLr4cQShKRkjS3Pc-19">
          <mxGeometry relative="1" as="geometry">
            <mxPoint x="525" y="360" as="sourcePoint" />
            <mxPoint x="685" y="360" as="targetPoint" />
            <Array as="points">
              <mxPoint x="525" y="361" />
            </Array>
          </mxGeometry>
        </mxCell>
        <mxCell id="-p0KhLr4cQShKRkjS3Pc-21" value="handleUploadPDFData(oToken, oFile, callback)" style="edgeLabel;html=1;align=center;verticalAlign=middle;resizable=0;points=[];" vertex="1" connectable="0" parent="-p0KhLr4cQShKRkjS3Pc-20">
          <mxGeometry x="-0.3917" y="2" relative="1" as="geometry">
            <mxPoint x="57" y="-9" as="offset" />
          </mxGeometry>
        </mxCell>
        <mxCell id="-p0KhLr4cQShKRkjS3Pc-22" value=":requestHelper" style="shape=umlLifeline;perimeter=lifelinePerimeter;whiteSpace=wrap;html=1;container=1;dropTarget=0;collapsible=0;recursiveResize=0;outlineConnect=0;portConstraint=eastwest;newEdgeStyle={&quot;curved&quot;:0,&quot;rounded&quot;:0};" vertex="1" parent="1">
          <mxGeometry x="1050" y="120" width="100" height="980" as="geometry" />
        </mxCell>
        <mxCell id="-p0KhLr4cQShKRkjS3Pc-23" value="" style="html=1;points=[[0,0,0,0,5],[0,1,0,0,-5],[1,0,0,0,5],[1,1,0,0,-5]];perimeter=orthogonalPerimeter;outlineConnect=0;targetShapes=umlLifeline;portConstraint=eastwest;newEdgeStyle={&quot;curved&quot;:0,&quot;rounded&quot;:0};" vertex="1" parent="-p0KhLr4cQShKRkjS3Pc-22">
          <mxGeometry x="45" y="50" width="10" height="460" as="geometry" />
        </mxCell>
        <mxCell id="-p0KhLr4cQShKRkjS3Pc-29" value="sendRequest(uploadLink, &quot;POST&quot;, JSON.stringify(this.consctructJSON(sDataURLBase64, oProperties)), xsrfToken, callback)" style="html=1;align=left;spacingLeft=2;endArrow=block;rounded=0;edgeStyle=orthogonalEdgeStyle;curved=0;rounded=0;" edge="1" parent="-p0KhLr4cQShKRkjS3Pc-22" source="-p0KhLr4cQShKRkjS3Pc-23" target="-p0KhLr4cQShKRkjS3Pc-23">
          <mxGeometry relative="1" as="geometry">
            <mxPoint x="60" y="395" as="sourcePoint" />
            <Array as="points">
              <mxPoint x="90" y="395" />
              <mxPoint x="90" y="425" />
            </Array>
            <mxPoint x="60" y="425" as="targetPoint" />
          </mxGeometry>
        </mxCell>
        <mxCell id="-p0KhLr4cQShKRkjS3Pc-30" value="open new XMLHttpRequest with file data as JSON" style="html=1;align=left;spacingLeft=2;endArrow=block;rounded=0;edgeStyle=orthogonalEdgeStyle;curved=0;rounded=0;" edge="1" parent="-p0KhLr4cQShKRkjS3Pc-22" source="-p0KhLr4cQShKRkjS3Pc-23" target="-p0KhLr4cQShKRkjS3Pc-23">
          <mxGeometry relative="1" as="geometry">
            <mxPoint x="60" y="449" as="sourcePoint" />
            <Array as="points">
              <mxPoint x="90" y="449" />
              <mxPoint x="90" y="479" />
            </Array>
            <mxPoint x="60" y="479" as="targetPoint" />
          </mxGeometry>
        </mxCell>
        <mxCell id="-p0KhLr4cQShKRkjS3Pc-24" style="edgeStyle=orthogonalEdgeStyle;rounded=0;orthogonalLoop=1;jettySize=auto;html=1;curved=0;" edge="1" parent="1">
          <mxGeometry relative="1" as="geometry">
            <mxPoint x="795" y="390" as="sourcePoint" />
            <mxPoint x="1095" y="391" as="targetPoint" />
            <Array as="points">
              <mxPoint x="795" y="391" />
            </Array>
          </mxGeometry>
        </mxCell>
        <mxCell id="-p0KhLr4cQShKRkjS3Pc-25" value="uploadBlobFile(oFIle, &quot;/app/uploadAllTables&quot;, callback)" style="edgeLabel;html=1;align=center;verticalAlign=middle;resizable=0;points=[];" vertex="1" connectable="0" parent="-p0KhLr4cQShKRkjS3Pc-24">
          <mxGeometry x="0.1889" y="3" relative="1" as="geometry">
            <mxPoint x="-13" y="-7" as="offset" />
          </mxGeometry>
        </mxCell>
        <mxCell id="-p0KhLr4cQShKRkjS3Pc-27" value="convert to base64 with FileReader" style="html=1;align=left;spacingLeft=2;endArrow=block;rounded=0;edgeStyle=orthogonalEdgeStyle;curved=0;rounded=0;" edge="1" target="-p0KhLr4cQShKRkjS3Pc-23" parent="1">
          <mxGeometry relative="1" as="geometry">
            <mxPoint x="1110" y="400" as="sourcePoint" />
            <Array as="points">
              <mxPoint x="1140" y="400" />
              <mxPoint x="1140" y="430" />
            </Array>
            <mxPoint x="1115" y="430" as="targetPoint" />
          </mxGeometry>
        </mxCell>
        <mxCell id="-p0KhLr4cQShKRkjS3Pc-28" value="uploadBase64(reader.result, url, callback, oProperties, xsrfToken)" style="html=1;align=left;spacingLeft=2;endArrow=block;rounded=0;edgeStyle=orthogonalEdgeStyle;curved=0;rounded=0;" edge="1" parent="1" target="-p0KhLr4cQShKRkjS3Pc-23">
          <mxGeometry relative="1" as="geometry">
            <mxPoint x="1105" y="460" as="sourcePoint" />
            <Array as="points">
              <mxPoint x="1135" y="460" />
              <mxPoint x="1135" y="490" />
            </Array>
            <mxPoint x="1110" y="490" as="targetPoint" />
          </mxGeometry>
        </mxCell>
        <mxCell id="-p0KhLr4cQShKRkjS3Pc-31" style="edgeStyle=orthogonalEdgeStyle;rounded=0;orthogonalLoop=1;jettySize=auto;html=1;curved=0;" edge="1" parent="1">
          <mxGeometry relative="1" as="geometry">
            <mxPoint x="1095.0000000000002" y="630" as="sourcePoint" />
            <mxPoint x="530" y="630" as="targetPoint" />
          </mxGeometry>
        </mxCell>
        <mxCell id="-p0KhLr4cQShKRkjS3Pc-32" value="call onUploadPDFDataComplete from passed through callback method" style="edgeLabel;html=1;align=center;verticalAlign=middle;resizable=0;points=[];" vertex="1" connectable="0" parent="-p0KhLr4cQShKRkjS3Pc-31">
          <mxGeometry x="-0.3805" y="3" relative="1" as="geometry">
            <mxPoint x="-110" y="-13" as="offset" />
          </mxGeometry>
        </mxCell>
        <mxCell id="-p0KhLr4cQShKRkjS3Pc-35" value="alt" style="shape=umlFrame;whiteSpace=wrap;html=1;pointerEvents=0;" vertex="1" parent="1">
          <mxGeometry x="440" y="640" width="820" height="390" as="geometry" />
        </mxCell>
        <mxCell id="-p0KhLr4cQShKRkjS3Pc-36" value="success == true" style="text;html=1;align=center;verticalAlign=middle;resizable=0;points=[];autosize=1;strokeColor=none;fillColor=none;" vertex="1" parent="1">
          <mxGeometry x="440" y="670" width="110" height="30" as="geometry" />
        </mxCell>
        <mxCell id="-p0KhLr4cQShKRkjS3Pc-38" value="setStatus of tender to generating" style="html=1;align=left;spacingLeft=2;endArrow=block;rounded=0;edgeStyle=orthogonalEdgeStyle;curved=0;rounded=0;" edge="1" target="-p0KhLr4cQShKRkjS3Pc-4" parent="1" source="-p0KhLr4cQShKRkjS3Pc-8">
          <mxGeometry relative="1" as="geometry">
            <mxPoint x="530" y="690" as="sourcePoint" />
            <Array as="points">
              <mxPoint x="490" y="720" />
              <mxPoint x="490" y="720" />
            </Array>
            <mxPoint x="535" y="720.0344827586207" as="targetPoint" />
          </mxGeometry>
        </mxCell>
        <mxCell id="-p0KhLr4cQShKRkjS3Pc-40" value="extraction and generation" style="shape=module;align=left;spacingLeft=20;align=center;verticalAlign=top;whiteSpace=wrap;html=1;" vertex="1" parent="1">
          <mxGeometry x="630" y="710" width="100" height="50" as="geometry" />
        </mxCell>
        <mxCell id="-p0KhLr4cQShKRkjS3Pc-43" style="edgeStyle=orthogonalEdgeStyle;rounded=0;orthogonalLoop=1;jettySize=auto;html=1;curved=0;entryX=0;entryY=0;entryDx=0;entryDy=15;entryPerimeter=0;strokeColor=default;" edge="1" parent="1" source="-p0KhLr4cQShKRkjS3Pc-8" target="-p0KhLr4cQShKRkjS3Pc-40">
          <mxGeometry relative="1" as="geometry">
            <Array as="points">
              <mxPoint x="550" y="725" />
              <mxPoint x="550" y="725" />
            </Array>
          </mxGeometry>
        </mxCell>
        <mxCell id="-p0KhLr4cQShKRkjS3Pc-44" value="start async" style="edgeLabel;html=1;align=center;verticalAlign=middle;resizable=0;points=[];" vertex="1" connectable="0" parent="-p0KhLr4cQShKRkjS3Pc-43">
          <mxGeometry x="-0.3079" relative="1" as="geometry">
            <mxPoint x="9" as="offset" />
          </mxGeometry>
        </mxCell>
        <mxCell id="-p0KhLr4cQShKRkjS3Pc-48" value="information" style="html=1;verticalAlign=bottom;endArrow=open;dashed=1;endSize=8;curved=0;rounded=0;exitX=0;exitY=0;exitDx=0;exitDy=35;exitPerimeter=0;" edge="1" parent="1" source="-p0KhLr4cQShKRkjS3Pc-40" target="-p0KhLr4cQShKRkjS3Pc-8">
          <mxGeometry x="-0.0476" y="5" relative="1" as="geometry">
            <mxPoint x="660" y="730" as="sourcePoint" />
            <mxPoint x="580" y="730" as="targetPoint" />
            <mxPoint as="offset" />
          </mxGeometry>
        </mxCell>
        <mxCell id="-p0KhLr4cQShKRkjS3Pc-49" value="display information" style="html=1;align=left;spacingLeft=2;endArrow=block;rounded=0;edgeStyle=orthogonalEdgeStyle;curved=0;rounded=0;" edge="1" parent="1" source="-p0KhLr4cQShKRkjS3Pc-8" target="-p0KhLr4cQShKRkjS3Pc-3">
          <mxGeometry x="0.3515" relative="1" as="geometry">
            <mxPoint x="530" y="780" as="sourcePoint" />
            <Array as="points">
              <mxPoint x="510" y="810" />
              <mxPoint x="510" y="810" />
            </Array>
            <mxPoint x="535" y="810.0344827586207" as="targetPoint" />
            <mxPoint as="offset" />
          </mxGeometry>
        </mxCell>
        <mxCell id="-p0KhLr4cQShKRkjS3Pc-50" value="set status generated" style="html=1;align=left;spacingLeft=2;endArrow=block;rounded=0;edgeStyle=orthogonalEdgeStyle;curved=0;rounded=0;" edge="1" parent="1" source="-p0KhLr4cQShKRkjS3Pc-8" target="-p0KhLr4cQShKRkjS3Pc-4">
          <mxGeometry x="0.6111" relative="1" as="geometry">
            <mxPoint x="460" y="840" as="sourcePoint" />
            <Array as="points">
              <mxPoint x="380" y="870" />
              <mxPoint x="380" y="870" />
            </Array>
            <mxPoint x="465" y="870.0344827586207" as="targetPoint" />
            <mxPoint as="offset" />
          </mxGeometry>
        </mxCell>
        <mxCell id="-p0KhLr4cQShKRkjS3Pc-53" value="" style="line;strokeWidth=1;fillColor=none;align=left;verticalAlign=middle;spacingTop=-1;spacingLeft=3;spacingRight=3;rotatable=0;labelPosition=right;points=[];portConstraint=eastwest;strokeColor=inherit;" vertex="1" parent="1">
          <mxGeometry x="440" y="900" width="820" height="8" as="geometry" />
        </mxCell>
        <mxCell id="-p0KhLr4cQShKRkjS3Pc-54" value="success == false" style="text;html=1;align=center;verticalAlign=middle;resizable=0;points=[];autosize=1;strokeColor=none;fillColor=none;" vertex="1" parent="1">
          <mxGeometry x="440" y="908" width="110" height="30" as="geometry" />
        </mxCell>
        <mxCell id="-p0KhLr4cQShKRkjS3Pc-55" value="determine error code" style="html=1;align=left;spacingLeft=2;endArrow=block;rounded=0;edgeStyle=orthogonalEdgeStyle;curved=0;rounded=0;" edge="1" parent="1">
          <mxGeometry x="-0.0118" y="10" relative="1" as="geometry">
            <mxPoint x="530" y="938" as="sourcePoint" />
            <Array as="points">
              <mxPoint x="560" y="968" />
            </Array>
            <mxPoint x="535" y="968.0344827586207" as="targetPoint" />
            <mxPoint as="offset" />
          </mxGeometry>
        </mxCell>
        <mxCell id="-p0KhLr4cQShKRkjS3Pc-56" value="display error" style="html=1;align=left;spacingLeft=2;endArrow=block;rounded=0;edgeStyle=orthogonalEdgeStyle;curved=0;rounded=0;" edge="1" parent="1">
          <mxGeometry x="-0.0118" y="10" relative="1" as="geometry">
            <mxPoint x="515" y="1000.0000000000002" as="sourcePoint" />
            <Array as="points">
              <mxPoint x="470" y="1000" />
              <mxPoint x="470" y="1000" />
            </Array>
            <mxPoint x="329.66666666666674" y="1000.0000000000002" as="targetPoint" />
            <mxPoint as="offset" />
          </mxGeometry>
        </mxCell>
      </root>
    </mxGraphModel>
  </diagram>
</mxfile>
